# xmcd CD database file
#
# Track frame offsets:
#	150
#	20332
#	37655
#	47817
#	58717
#	72957
#	83465
#	112012
#	129210
#	155030
#	169565
#	183747
#	201645
#	217202
#	240370
#
# Disc length: 3493 seconds
#
# Revision: 1
# Processed by: cddbd v1.5.1PL0 Copyright (c) Steve Scherf et al.
# Submitted via: CDex 1.50Beta7
#
DISCID=ce0da30f
DTITLE=Eddie Condon - The Town Hall Concerts Volume 3 [CD1/2)
DYEAR=1944
DGENRE=Jazz
TTITLE0=That's A Plenty
TTITLE1=I'm A Ding Dong Daddy From Dumas
TTITLE2=Echoes Of Spring
TTITLE3=Polonaise
TTITLE4=Caravan
TTITLE5=New Orleans
TTITLE6=Wolverine Blues
TTITLE7=Ensemble Blues
TTITLE8=Fidgety Feet
TTITLE9=Oh, Katherina
TTITLE10=Davenport Blues
TTITLE11=I'd Climb The Highest Mountain
TTITLE12=In A Mist
TTITLE13=Candeleight
TTITLE14=Jazz Me Blues
EXTD=YEAR: 1944
EXTT0=
EXTT1=
EXTT2=
EXTT3=
EXTT4=
EXTT5=
EXTT6=
EXTT7=
EXTT8=
EXTT9=
EXTT10=
EXTT11=
EXTT12=
EXTT13=
EXTT14=
PLAYORDER=
